<?xml version="1.0" encoding="UTF-8"?>
<!DOCTYPE svg PUBLIC "-//W3C//DTD SVG 1.1//EN" "http://www.w3.org/Graphics/SVG/1.1/DTD/svg11.dtd">
<!-- Creator: CorelDRAW -->
<svg xmlns="http://www.w3.org/2000/svg" xml:space="preserve" width="2048px" height="2048px" style="shape-rendering:geometricPrecision; text-rendering:geometricPrecision; image-rendering:optimizeQuality; fill-rule:evenodd; clip-rule:evenodd"
viewBox="0 0 2048 2048"
 xmlns:xlink="http://www.w3.org/1999/xlink">
 <defs>
  <style type="text/css">
   <![CDATA[
    .fil2 {fill:none}
    .fil0 {fill:#212121;fill-rule:nonzero}
    .fil1 {fill:#66BB6A;fill-rule:nonzero}
   ]]>
  </style>
 </defs>
 <g id="Layer_x0020_1">
  <metadata id="CorelCorpID_0Corel-Layer"/>
  <path class="fil0" d="M421.179 255.999l1205.64 0c13.2543,0 24,10.7457 24,24l0 1488c0,13.2543 -10.7457,24 -24,24l-1.01811 0c-7.26379,0 -13.774,-3.22677 -18.1748,-8.32678l-57.0804 -56.8867 -58.3276 58.1304 0.0484252 0.0484252c-9.38859,9.35552 -24.5858,9.33072 -33.9414,-0.0578741 -0.411024,-0.413386 -0.80315,-0.838583 -1.17874,-1.27205l-57.0426 -56.8489 -58.3276 58.1304 0.0484252 0.0484252c-9.38859,9.35552 -24.5858,9.33072 -33.9414,-0.0578741 -0.411024,-0.413386 -0.80315,-0.838583 -1.17874,-1.27205l-57.0426 -56.8489 -58.3276 58.1304 0.0484252 0.0484252c-9.38859,9.35552 -24.5858,9.33072 -33.9414,-0.0578741 -0.411024,-0.413386 -0.80315,-0.838583 -1.17874,-1.27205l-57.0426 -56.8489 -58.3276 58.1304 0.0484252 0.0484252c-9.38859,9.35552 -24.5858,9.33072 -33.9414,-0.0578741 -0.411024,-0.413386 -0.80315,-0.838583 -1.17874,-1.27205l-57.0426 -56.8489 -58.3276 58.1304 0.0484252 0.0484252c-9.38859,9.35552 -24.5858,9.33072 -33.9414,-0.0578741 -0.411024,-0.413386 -0.80315,-0.838583 -1.17874,-1.27205l-57.0426 -56.8489 -58.3276 58.1304 0.0484252 0.0484252c-9.38859,9.35552 -24.5858,9.33072 -33.9414,-0.0578741 -0.411024,-0.413386 -0.80315,-0.838583 -1.17874,-1.27205l-57.0426 -56.8489 -58.3276 58.1304 0.0484252 0.0484252c-9.38859,9.35552 -24.5858,9.33072 -33.9414,-0.0578741 -0.411024,-0.413386 -0.80315,-0.838583 -1.17874,-1.27205l-57.0426 -56.8489 -58.3619 58.1646 0.0484252 0.0484252c-4.68426,4.66772 -10.8142,7.0004 -16.9417,7.0004l-0.0413386 0 -0.977954 0c-13.2543,0 -24,-10.7457 -24,-24l0 -1488c0,-13.2543 10.7457,-24 24,-24zm1181.64 48l-1157.64 0 0 1407.31 34.0961 -33.9803c0.375591,-0.433465 0.767717,-0.858662 1.17874,-1.27205 9.35552,-9.38859 24.5528,-9.41339 33.9414,-0.0578741l-0.0484252 0.0484252 58.3276 58.1304 57.0426 -56.8489c0.375591,-0.433465 0.767717,-0.858662 1.17874,-1.27205 9.35552,-9.38859 24.5528,-9.41339 33.9414,-0.0578741l-0.0484252 0.0484252 58.3276 58.1304 57.0426 -56.8489c0.375591,-0.433465 0.767717,-0.858662 1.17874,-1.27205 9.35552,-9.38859 24.5528,-9.41339 33.9414,-0.0578741l-0.0484252 0.0484252 58.3276 58.1304 57.0426 -56.8489c0.375591,-0.433465 0.767717,-0.858662 1.17874,-1.27205 9.35552,-9.38859 24.5528,-9.41339 33.9414,-0.0578741l-0.0484252 0.0484252 58.3276 58.1304 57.0426 -56.8489c0.375591,-0.433465 0.767717,-0.858662 1.17874,-1.27205 9.35552,-9.38859 24.5528,-9.41339 33.9414,-0.0578741l-0.0484252 0.0484252 58.3276 58.1304 57.0426 -56.8489c0.375591,-0.433465 0.767717,-0.858662 1.17874,-1.27205 9.35552,-9.38859 24.5528,-9.41339 33.9414,-0.0578741l-0.0484252 0.0484252 58.3276 58.1304 57.0426 -56.8489c0.375591,-0.433465 0.767717,-0.858662 1.17874,-1.27205 9.35552,-9.38859 24.5528,-9.41339 33.9414,-0.0578741l-0.0484252 0.0484252 58.3276 58.1304 57.0426 -56.8489c0.375591,-0.433465 0.767717,-0.858662 1.17874,-1.27205 9.35552,-9.38859 24.5528,-9.41339 33.9414,-0.0578741l-0.0484252 0.0484252 35.3799 35.2607 0 -1407.31z"/>
  <g id="_475136400">
   <polygon id="_475136496" class="fil1" points="578.404,520 1090.41,520 1090.41,568 578.404,568 "/>
   <polygon id="_475137072" class="fil1" points="578.404,839.999 1088,839.999 1088,888 578.404,888 "/>
   <path id="_475137240" class="fil1" d="M1326.8 537.202c46.0571,0 87.7583,18.6709 117.943,48.8552 30.1843,30.1843 48.8552,71.8855 48.8552,117.943 0,46.0571 -18.6709,87.7572 -48.8552,117.941 -30.1843,30.1843 -71.8855,48.8563 -117.943,48.8563 -46.0571,0 -87.7572,-18.6721 -117.941,-48.8563 -30.1843,-30.1843 -48.8563,-71.8843 -48.8563,-117.941 0,-46.0571 18.6721,-87.7583 48.8563,-117.943 30.1843,-30.1843 71.8843,-48.8552 117.941,-48.8552zm84.0048 82.793c-21.4961,-21.4961 -51.1985,-34.7929 -84.0048,-34.7929 -32.8063,0 -62.5075,13.2969 -84.0036,34.7929 -21.4961,21.4961 -34.7941,51.1985 -34.7941,84.0048 0,32.8063 13.298,62.5075 34.7941,84.0036 21.4961,21.4961 51.1973,34.7941 84.0036,34.7941 32.8063,0 62.5087,-13.298 84.0048,-34.7941 21.4961,-21.4961 34.7929,-51.1973 34.7929,-84.0036 0,-32.8063 -13.2969,-62.5087 -34.7929,-84.0048z"/>
   <path id="_475136880" class="fil1" d="M1323.34 754.864l0 -44.576c-13.9146,-3.99685 -24.1229,-9.99095 -30.6248,-18.0555 -6.46654,-8.06457 -9.73702,-17.837 -9.73702,-29.3173 0,-11.6256 3.66969,-21.398 11.0079,-29.3173 7.37481,-7.92048 17.1473,-12.4606 29.354,-13.6961l0 -10.5354 15.4039 0 0 10.5354c11.2973,1.38071 20.2713,5.19449 26.9551,11.5524 6.64843,6.35788 10.8992,14.8583 12.7524,25.5024l-26.9197 3.52441c-1.63583,-8.39174 -5.88544,-14.0599 -12.7878,-17.0386l0 41.5973c17.0374,4.61339 28.663,10.6075 34.8024,17.9457 6.17599,7.33938 9.26457,16.748 9.26457,28.265 0,12.8232 -3.88819,23.6492 -11.6256,32.4414 -7.77402,8.82757 -18.6,14.2039 -32.4414,16.2024l0 19.9087 -15.4039 0 0 -19.3996c-12.2787,-1.48937 -22.2697,-6.06733 -29.9351,-13.7327 -7.66536,-7.62875 -12.5339,-18.4547 -14.6776,-32.4414l27.7925 -2.97874c1.12559,5.66693 3.26929,10.5709 6.39331,14.6764 3.08859,4.10551 6.57638,7.08426 10.4268,8.93741zm0 -111.749c-4.21418,1.41732 -7.52008,3.85158 -10.0264,7.22953 -2.47087,3.41575 -3.7063,7.1941 -3.7063,11.2984 0,3.74174 1.12677,7.26615 3.37914,10.4634 2.28898,3.23268 5.74016,5.84882 10.3536,7.84725l0 -36.8386zm15.4039 113.238c5.33977,-0.981497 9.66261,-3.45118 13.0051,-7.37481 3.34252,-3.96024 5.01378,-8.57363 5.01378,-13.9146 0,-4.75867 -1.41732,-8.82757 -4.21418,-12.2787 -2.79803,-3.45118 -7.41142,-6.10394 -13.8047,-7.92048l0 41.4886z"/>
   <polygon id="_475137144" class="fil1" points="578.404,1160 1469.6,1160 1469.6,1208 578.404,1208 "/>
   <polygon id="_475136664" class="fil1" points="578.404,1480 1469.6,1480 1469.6,1528 578.404,1528 "/>
  </g>
 </g>
 <rect class="fil2" width="2048" height="2048"/>
</svg>
